<?xml version="1.0" encoding="UTF-8"?>
<svg id="Layer_1" xmlns="http://www.w3.org/2000/svg" version="1.1" viewBox="0 0 1000 1000">
  <!-- Generator: Adobe Illustrator 30.2.1, SVG Export Plug-In . SVG Version: 2.1.1 Build 1)  -->
  <defs>
    <style>
      .st0 {
        fill: #cdaa61;
      }
    </style>
  </defs>
  <path class="st0" d="M318.03,63.7c-46.75,2.21-78.67,9.67-106.58,20.63-28.88,11.26-53.37,26.36-77.73,50.81-24.36,24.45-39.36,48.95-50.54,77.87-10.82,27.97-18.15,59.92-20.21,106.7-2.07,46.78-2.52,61.81-2.29,181.13s.76,134.27,3.02,181.15c2.23,46.74,9.67,78.66,20.63,106.57,11.27,28.88,26.36,53.36,50.82,77.73,24.46,24.37,48.94,39.33,77.94,50.53,27.94,10.8,59.9,18.16,106.67,20.21,46.77,2.05,61.82,2.52,181.1,2.29,119.28-.23,134.3-.76,181.16-2.98,46.86-2.22,78.61-9.71,106.54-20.62,28.88-11.3,53.38-26.36,77.73-50.83,24.35-24.46,39.34-48.98,50.51-77.93,10.83-27.94,18.18-59.9,20.21-106.64,2.05-46.9,2.53-61.87,2.3-181.17-.23-119.3-.76-134.26-2.99-181.11s-9.67-78.67-20.62-106.61c-11.29-28.88-26.36-53.34-50.81-77.73-24.45-24.39-48.98-39.37-77.92-50.51-27.96-10.82-59.9-18.19-106.67-20.21-46.77-2.02-61.82-2.54-181.15-2.31s-134.26.74-181.13,3.02M323.17,857.98c-42.84-1.86-66.1-8.98-81.6-14.94-20.53-7.91-35.15-17.47-50.6-32.77-15.45-15.3-24.94-29.97-32.95-50.46-6.02-15.5-13.27-38.74-15.27-81.57-2.18-46.3-2.64-60.2-2.89-177.51-.25-117.3.19-131.19,2.22-177.51,1.83-42.8,8.99-66.09,14.94-81.58,7.91-20.55,17.43-35.15,32.77-50.59,15.33-15.44,29.97-24.95,50.47-32.96,15.48-6.05,38.72-13.23,81.54-15.27,46.34-2.2,60.22-2.64,177.51-2.89,117.29-.25,131.21.18,177.56,2.22,42.8,1.86,66.1,8.95,81.57,14.94,20.54,7.91,35.15,17.41,50.59,32.77,15.44,15.36,24.96,29.94,32.97,50.48,6.05,15.44,13.24,38.66,15.26,81.51,2.21,46.34,2.71,60.23,2.92,177.51.21,117.28-.2,131.21-2.23,177.51-1.87,42.84-8.97,66.11-14.94,81.63-7.91,20.52-17.44,35.15-32.79,50.58-15.34,15.43-29.96,24.94-50.47,32.95-15.47,6.04-38.73,13.24-81.51,15.28-46.34,2.18-60.22,2.64-177.55,2.89s-131.17-.22-177.51-2.22M681.35,265.17c.05,29.12,23.69,52.69,52.81,52.64s52.69-23.69,52.64-52.81c-.05-29.12-23.69-52.69-52.81-52.64,0,0-.01,0-.02,0-29.11.06-52.67,23.7-52.62,52.81M274.4,500.44c.25,124.61,101.44,225.39,226.02,225.15s225.43-101.43,225.2-226.03c-.24-124.61-101.46-225.42-226.06-225.17-124.6.25-225.4,101.46-225.16,226.05M353.54,500.28c-.16-80.89,65.28-146.59,146.17-146.75,80.89-.16,146.59,65.28,146.75,146.17.16,80.89-65.28,146.59-146.17,146.75-80.88.17-146.58-65.26-146.75-146.14v-.04"/>
</svg>