<?xml version="1.0" encoding="UTF-8"?>
<svg id="Layer_1" xmlns="http://www.w3.org/2000/svg" version="1.1" viewBox="0 0 800 800">
  <!-- Generator: Adobe Illustrator 30.2.1, SVG Export Plug-In . SVG Version: 2.1.1 Build 1)  -->
  <defs>
    <style>
      .st0 {
        fill: #cdaa61;
      }
    </style>
  </defs>
  <path class="st0" d="M407.83,56.25c-183.33,0-333.33,149.67-333.33,334,0,166.67,122,305,281.33,330v-233.33h-84.67v-96.67h84.67v-73.67c0-83.67,49.67-129.67,126-129.67,36.33,0,74.33,6.33,74.33,6.33v82.33h-42c-41.33,0-54.33,25.67-54.33,52v62.67h92.67l-15,96.67h-77.67v233.33c78.55-12.41,150.07-52.48,201.66-113,51.59-60.51,79.85-137.48,79.67-217,0-184.33-150-334-333.33-334Z"/>
</svg>